<svg xmlns="http://www.w3.org/2000/svg" viewBox="0 0 329.4 51.68"><defs><style>.cls-1{fill:#ee790a;}</style></defs><title>Asset 1</title><g id="Layer_2" data-name="Layer 2"><g id="Layer_1-2" data-name="Layer 1"><path class="cls-1" d="M369.37-182.11H358.48a.92.92,0,0,0-.6.24,1.15,1.15,0,0,0-.69-.24H344.43a1.13,1.13,0,0,0-.89.43l-13.17,17.16a1.12,1.12,0,0,1-2-.69V-181a1.12,1.12,0,0,0-1.12-1.12H316.75a1.12,1.12,0,0,0-1.12,1.12l0,46.72a1.12,1.12,0,0,0,1.11,1.12h10.49a1.12,1.12,0,0,0,1.12-1.12v-16.87a1.11,1.11,0,0,1,2-.68l14.23,18.23a1.12,1.12,0,0,0,.88.43h23.92a.92.92,0,0,0,.91-.92v-47.11a.92.92,0,0,0-.92-.92m-28.6,23.9a1.12,1.12,0,0,1,0-1.43l16.79-20.05v41.88Z" transform="translate(-315.63 183.5)"/><path class="cls-1" d="M467.64-176a25.89,25.89,0,0,0-8.6-5.48,29.4,29.4,0,0,0-10.91-2,29.3,29.3,0,0,0-10.94,2,24.4,24.4,0,0,0-8.31,5.49,25.09,25.09,0,0,0-5.59,8.21,24.8,24.8,0,0,0-1.41,4.48l-.09-18.14a.67.67,0,0,0-.66-.66H409.79a.65.65,0,0,0-.66.66l.23,27.36a.66.66,0,0,1-1.18.41l-22.36-28.17a.65.65,0,0,0-.52-.26H373.82a.92.92,0,0,0-.92.92v47.11a.92.92,0,0,0,.92.92h10.89a.92.92,0,0,0,.92-.92v-27.11a.66.66,0,0,1,1.18-.4l22.35,28.17a.67.67,0,0,0,.52.25h11.68a.66.66,0,0,0,.66-.66l-.08-17.9a23.82,23.82,0,0,0,1.36,4.24,25.09,25.09,0,0,0,5.59,8.21,25.39,25.39,0,0,0,8.54,5.49,29.26,29.26,0,0,0,10.94,2,29.55,29.55,0,0,0,10.9-2,24.7,24.7,0,0,0,8.38-5.49,24.87,24.87,0,0,0,5.62-8.21,25.62,25.62,0,0,0,2-10.16,25.56,25.56,0,0,0-2-10.16,25,25,0,0,0-5.62-8.22m-6.77,23.77a13,13,0,0,1-2.8,4.29,13.9,13.9,0,0,1-4.42,2.82,14,14,0,0,1-5.29,1,13.87,13.87,0,0,1-5.29-1,13.4,13.4,0,0,1-4.38-2.82,13.64,13.64,0,0,1-3-4.28,13,13,0,0,1-1.11-5.39A13,13,0,0,1,435.7-163a13.65,13.65,0,0,1,3-4.29,13.61,13.61,0,0,1,4.38-2.82,14.07,14.07,0,0,1,5.29-1,14.07,14.07,0,0,1,5.3,1,14.17,14.17,0,0,1,4.41,2.83,12.66,12.66,0,0,1,2.8,4.28,13,13,0,0,1,1.11,5.39,13.15,13.15,0,0,1-1.1,5.39" transform="translate(-315.63 183.5)"/><path class="cls-1" d="M569.13-144H555.71a.92.92,0,0,1-.92-.92v-36.34a.92.92,0,0,0-.92-.91H543a.92.92,0,0,0-.92.92v30c0-.1-.05-.21-.07-.31a9.77,9.77,0,0,0-1.73-3.51,10.16,10.16,0,0,0-3.11-2.62,14.46,14.46,0,0,0-4-1.45.29.29,0,0,1-.09-.52,10.92,10.92,0,0,0,3.47-3.75,12.64,12.64,0,0,0,1.33-6.13q0-6.1-3.51-9.35c-2.34-2.16-5.75-3.25-10.26-3.25h-18a.92.92,0,0,0-.92.92l0,47.12a.92.92,0,0,0,.92.91h19.53a24.86,24.86,0,0,0,7-.91,14.5,14.5,0,0,0,5.29-2.73,12.42,12.42,0,0,0,3.38-4.48,12.85,12.85,0,0,0,.75-2.27v9.47a.92.92,0,0,0,.92.91h26.15a.9.9,0,0,0,.91-.92v-8.94a.92.92,0,0,0-.92-.92M517.9-171.5a.92.92,0,0,1,.92-.91h1.42q6,0,6,4.73c0,3.16-2,4.74-6,4.74h-1.42a.92.92,0,0,1-.92-.91Zm9.69,27.2c-1.39.82-3.68,1.23-6.89,1.23h-1.87a.92.92,0,0,1-.92-.92v-8.55a.92.92,0,0,1,.92-.92h1.87c3.2,0,5.5.41,6.88,1.24a4.25,4.25,0,0,1,2.08,4,4.28,4.28,0,0,1-2.07,4" transform="translate(-315.63 183.5)"/><path class="cls-1" d="M599.17-182.18h-26a.92.92,0,0,0-.91.92v47.12a.92.92,0,0,0,.92.92h26a.92.92,0,0,0,.91-.92v-8.94a.92.92,0,0,0-.92-.92H585.89a.92.92,0,0,1-.92-.91v-6.61a.92.92,0,0,1,.92-.92h12.45a.92.92,0,0,0,.91-.92v-8.94a.92.92,0,0,0-.92-.92H585.88a.92.92,0,0,1-.91-.92v-6.35a.92.92,0,0,1,.92-.91h13.29a.92.92,0,0,0,.92-.92v-8.94a.92.92,0,0,0-.92-.92" transform="translate(-315.63 183.5)"/><path class="cls-1" d="M643.14-167a24.74,24.74,0,0,0-5.16-7.79,25.57,25.57,0,0,0-7.66-5.35,22.28,22.28,0,0,0-9.39-2H603a.92.92,0,0,0-.91.92v47.12a.92.92,0,0,0,.92.92H621a22.37,22.37,0,0,0,9.44-2,25.26,25.26,0,0,0,7.66-5.39,24.61,24.61,0,0,0,5.13-7.83,23.9,23.9,0,0,0,1.85-9.25,23.6,23.6,0,0,0-1.89-9.32m-12.36,14.81a12.24,12.24,0,0,1-2.73,4.32,12.59,12.59,0,0,1-4.38,2.85,15.85,15.85,0,0,1-5.91,1.05h-2a.92.92,0,0,1-.92-.92v-25.56a.92.92,0,0,1,.91-.92h2a15.66,15.66,0,0,1,5.84,1,12.76,12.76,0,0,1,4.38,2.86,12.54,12.54,0,0,1,2.76,4.35,15,15,0,0,1,1,5.45,15.44,15.44,0,0,1-.94,5.49" transform="translate(-315.63 183.5)"/><path class="cls-1" d="M495.09-162.07a8,8,0,0,0-2.59-1.72,8.06,8.06,0,0,0-3.13-.62,8.09,8.09,0,0,0-3.13.62,8,8,0,0,0-2.58,1.72,8,8,0,0,0-1.72,2.59,8.06,8.06,0,0,0-.62,3.13,8.09,8.09,0,0,0,.62,3.13,7.88,7.88,0,0,0,1.72,2.58,7.94,7.94,0,0,0,2.58,1.72,8.1,8.1,0,0,0,3.14.62,8.09,8.09,0,0,0,3.13-.62,8.1,8.1,0,0,0,2.58-1.72,8.1,8.1,0,0,0,1.72-2.58,8.14,8.14,0,0,0,.62-3.14,8.09,8.09,0,0,0-.62-3.13,8.27,8.27,0,0,0-1.72-2.58" transform="translate(-315.63 183.5)"/></g></g></svg>